<svg width="32" height="30" viewBox="0 0 32 30" fill="none" xmlns="http://www.w3.org/2000/svg">
<g filter="url(#filter0_d_195_232)">
<path d="M32.5497 9.19674C31.6502 7.34361 30.3854 5.70116 28.89 4.44884C26.7258 2.63472 24.1386 1.35119 21.4093 0.746487C18.7568 0.157388 16.0082 0.200302 13.4595 0.883033C11.1453 1.49944 9.08094 2.59571 7.33184 4.14063C5.47125 5.78309 4.06043 7.85469 3.13399 10.3008C2.57273 11.7833 2.24213 13.3711 2.14987 15.0136C2.06146 16.6131 2.19985 18.2283 2.56505 19.8122C2.93024 21.3962 3.50687 22.9099 4.2834 24.3026C4.95613 25.512 5.76725 26.6083 6.69755 27.568C6.70139 27.5719 6.70523 27.5758 6.70908 27.5797C6.70908 27.5797 6.70908 27.5797 6.71292 27.5836C6.87822 27.7553 7.04737 27.9231 7.22036 28.0869C8.36977 29.1637 9.69986 30.0649 11.1683 30.7593C12.5984 31.4342 14.1284 31.8985 15.716 32.1443C16.554 32.273 17.3959 32.3354 18.234 32.3354C18.9797 32.3354 19.7255 32.2847 20.4636 32.1833C22.0704 31.9609 23.6004 31.5006 25.0151 30.8139C26.4259 30.1273 27.7406 29.2066 28.9208 28.0791C30.0702 26.9789 31.062 25.711 31.8693 24.3026C32.6804 22.8982 33.2801 21.3962 33.6607 19.8395C34.0528 18.2439 34.195 16.6287 34.0912 15.0448C33.9605 13.0239 33.4262 11.007 32.5497 9.19674ZM6.90898 26.9399C6.09785 26.066 5.38668 25.0829 4.78699 24.0061C4.03737 22.6602 3.47996 21.2011 3.1263 19.6718C2.77263 18.1386 2.63809 16.5819 2.7265 15.037C2.81492 13.4531 3.13399 11.9277 3.67217 10.5037C4.56402 8.14728 5.92102 6.15371 7.71241 4.57758C9.39617 3.09118 11.3798 2.03782 13.6094 1.44482C16.0697 0.789401 18.726 0.742585 21.2901 1.31608C23.8772 1.89347 26.3337 3.09508 28.4057 4.79605C27.2601 5.93914 26.1145 7.09003 24.969 8.24482C24.5961 7.86639 24.1617 7.55038 23.6773 7.32411C22.6817 6.86375 21.5784 6.74281 20.5635 6.97689C19.6409 7.19146 18.8336 7.70253 18.2532 8.42428C17.4459 7.45285 16.1504 6.89496 14.8434 6.98079C13.4864 7.06662 12.164 7.81957 11.3029 8.99387C10.5571 10.0121 10.1342 11.3113 10.1227 12.6065C9.56147 12.5519 8.97331 12.6767 8.43128 12.9771C7.78545 13.336 7.28571 13.89 7.02815 14.5415C6.25931 16.4844 6.73599 17.8889 7.27417 18.7277C7.76239 19.4884 8.45818 20.0112 8.98484 20.1828C8.93102 20.8656 9.12323 21.6224 9.53456 22.3403C9.74983 22.7148 10.0189 23.0581 10.3149 23.3507C9.16936 24.5445 8.03532 25.7422 6.90898 26.9399ZM25.7762 13.0824C25.8531 13.1566 25.9608 13.1839 26.0646 13.1527C26.2568 13.0903 26.9487 12.9927 27.7791 14.2489C28.3941 15.1814 28.521 16.4532 28.102 17.4909C27.683 18.5287 26.7142 19.348 25.634 19.5742C25.5187 19.5977 25.4303 19.6913 25.411 19.8044C25.1112 21.3884 23.7504 22.8318 22.1012 23.3117C20.5212 23.7721 18.7068 23.261 17.5843 22.0399C17.5151 21.9618 17.4113 21.9306 17.3113 21.954C17.2114 21.9775 17.1307 22.0516 17.0999 22.153C16.8962 22.8084 16.1735 23.3039 15.7621 23.5419C15.051 23.9515 13.3711 24.4119 11.5681 23.5536C11.4259 23.4873 11.2875 23.4014 11.1491 23.3039C12.041 22.3676 12.9367 21.4313 13.8324 20.495C14.0515 20.5769 14.286 20.6198 14.5243 20.6198C14.828 20.6198 15.1355 20.5496 15.4123 20.4091C15.9851 20.1126 16.3926 19.5274 16.4695 18.8798C16.4887 18.7199 16.3772 18.5716 16.2196 18.5521C16.062 18.5326 15.9159 18.6457 15.8967 18.8057C15.8429 19.2543 15.5469 19.6796 15.1509 19.8863C14.8934 20.019 14.5858 20.0619 14.2975 20.0151C15.2739 18.9968 16.2504 17.9825 17.2306 16.9721L17.2345 17.1554C17.246 17.8499 17.2614 18.634 17.5766 19.3402C17.7419 19.7108 18.0033 20.0463 18.3147 20.2804C18.6376 20.5262 18.9989 20.651 19.3565 20.651C19.3911 20.651 19.4218 20.651 19.4564 20.6471C20.1214 20.6042 20.7596 20.1048 21.0748 19.3753C21.3516 18.7394 21.3747 18.0371 21.3785 17.4285C21.3823 16.0475 21.267 14.6547 21.0402 13.2931C21.0287 13.2268 21.0171 13.1605 21.0056 13.0942C22.3126 11.7599 23.6235 10.4257 24.9382 9.09921C25.7147 10.137 26.0453 11.5375 25.6994 12.7977C25.6686 12.8952 25.6994 13.0044 25.7762 13.0824ZM9.52302 19.7654C9.46921 19.6991 9.39232 19.6601 9.30775 19.6562C9.04635 19.6484 8.29673 19.2621 7.75085 18.4077C7.28955 17.686 6.87822 16.4688 7.55864 14.76C7.93153 13.8237 8.91564 13.18 9.86516 13.18C10.0266 13.18 10.1881 13.1995 10.3457 13.2385C10.4341 13.2619 10.5264 13.2385 10.5994 13.18C10.6686 13.1215 10.707 13.0317 10.7032 12.9381C10.6378 11.6585 11.0223 10.3476 11.7603 9.34499C12.5215 8.30724 13.6863 7.64011 14.8741 7.56599C16.1235 7.48796 17.3536 8.08096 18.011 9.0797C18.0648 9.16163 18.1532 9.20844 18.2493 9.20844C18.3454 9.20844 18.4377 9.15773 18.4877 9.0758C18.9989 8.29163 19.7601 7.76105 20.6865 7.54648C21.5784 7.33971 22.5548 7.44895 23.4313 7.85469C23.8503 8.04975 24.2309 8.32284 24.5538 8.65056C23.3121 9.90288 22.0743 11.163 20.8365 12.4231C20.7596 12.1969 20.6558 11.9784 20.5097 11.7794C20.1445 11.2839 19.3911 10.9757 18.676 11.0265C18.0956 11.0694 17.6458 11.3347 17.4113 11.7755C17.1345 12.2944 17.146 12.903 17.1537 13.3907L17.2076 16.145C16.0389 17.3505 14.8741 18.5599 13.7132 19.7693C13.1596 19.3714 12.8598 18.5677 12.7944 17.3154C12.7329 16.1645 12.7714 14.998 12.9021 13.8549C12.9828 13.1488 13.1366 12.3763 13.6786 12.0018C14.0438 11.7482 14.5781 11.7404 14.951 11.9823C15.3239 12.2242 15.5353 12.7235 15.4584 13.1644C15.4315 13.3243 15.5353 13.4765 15.6929 13.5038C15.8506 13.5311 16.0005 13.4258 16.0274 13.2658C16.1466 12.5909 15.8313 11.8574 15.2624 11.4868C14.6935 11.1162 13.9092 11.1279 13.3518 11.5141C12.9674 11.7833 12.4984 12.2866 12.3293 13.7847C12.1947 14.9629 12.1601 16.1606 12.2216 17.3466C12.2947 18.7394 12.6522 19.6757 13.3095 20.1946C12.4408 21.1036 11.572 22.0126 10.7032 22.9216C9.9382 22.1647 9.38848 21.0099 9.57684 19.9995C9.59606 19.9176 9.573 19.8317 9.52302 19.7654ZM17.9226 12.0564C18.1071 11.7092 18.503 11.6312 18.7183 11.6156C19.2411 11.5765 19.7985 11.795 20.0484 12.1344C20.2099 12.3529 20.306 12.6221 20.3713 12.903C19.5025 13.7886 18.6376 14.6781 17.7726 15.5676L17.7304 13.3829C17.7265 12.942 17.7188 12.4426 17.9226 12.0564ZM20.5059 13.5974C20.7019 14.8575 20.8019 16.145 20.8019 17.4207C20.8019 17.9708 20.7788 18.6028 20.5482 19.1334C20.3175 19.664 19.8716 20.0268 19.418 20.058C18.826 20.097 18.3185 19.5859 18.0994 19.0944C17.8342 18.4975 17.8226 17.8069 17.8072 17.1398L17.7919 16.383C18.6953 15.4505 19.5986 14.5259 20.5059 13.5974ZM33.1071 19.6913C32.7419 21.1933 32.1576 22.6407 31.3772 23.9983C30.5969 25.356 29.6358 26.581 28.5287 27.6422C27.3946 28.7306 26.1299 29.6162 24.7691 30.2756C23.4082 30.9349 21.9359 31.3796 20.3905 31.5942C18.8798 31.8049 17.3383 31.7893 15.8083 31.5552C14.2744 31.3211 12.7983 30.8725 11.4182 30.2209C10.0035 29.5538 8.72343 28.6877 7.61631 27.65C7.51636 27.5563 7.41641 27.4588 7.31646 27.3574C8.45434 26.1441 9.59991 24.9347 10.7493 23.7252C10.9338 23.8657 11.1299 23.9827 11.3259 24.0764C12.0756 24.4353 12.8905 24.6186 13.7017 24.6186C13.8247 24.6186 13.9477 24.6147 14.0707 24.6069C14.7972 24.5562 15.5161 24.3534 16.0505 24.0452C16.827 23.5965 17.246 23.1283 17.469 22.7382C18.4031 23.5887 19.6601 24.0608 20.9172 24.0608C21.3708 24.0608 21.8244 23.9983 22.2627 23.8696C24.0502 23.3468 25.5341 21.8136 25.9415 20.097C27.1448 19.7771 28.1673 18.8759 28.6402 17.7055C29.1361 16.4727 28.99 15.0214 28.2596 13.9173C27.9674 13.4726 27.2524 12.5519 26.349 12.5246C26.5758 11.1825 26.1722 9.75463 25.3457 8.68177C26.5105 7.50747 27.6753 6.33707 28.8401 5.17448C30.1356 6.33707 31.235 7.80787 32.0307 9.45423C32.8765 11.1981 33.3916 13.141 33.5184 15.076C33.6222 16.5975 33.48 18.1542 33.1071 19.6913ZM25.7609 23.9983C25.1266 23.9593 24.5653 24.209 24.2655 24.6733C23.908 25.2233 23.9349 25.9841 24.3347 26.5264C24.6537 26.9555 25.1842 27.2091 25.7263 27.2091C25.8301 27.2091 25.9339 27.2013 26.0338 27.1818C26.522 27.0921 26.9603 26.7878 27.1986 26.3664C27.4562 25.9178 27.4792 25.3599 27.2601 24.9112C27.0025 24.3885 26.4298 24.0412 25.7609 23.9983ZM26.6989 26.0738C26.5412 26.3469 26.2529 26.5459 25.9262 26.6083C25.5072 26.6863 25.0382 26.5108 24.7921 26.1753C24.5384 25.8359 24.5192 25.3404 24.7422 24.9971C24.9151 24.7318 25.2419 24.5835 25.6302 24.5835C25.6609 24.5835 25.6917 24.5835 25.7224 24.5874C26.1799 24.6147 26.5797 24.8449 26.7411 25.1726C26.8757 25.4418 26.8603 25.7968 26.6989 26.0738ZM23.5389 21.3064C23.5543 21.4664 23.439 21.6107 23.2814 21.6263C23.1353 21.6419 22.9623 21.6458 22.7355 21.6458C22.574 21.6458 22.3857 21.6419 22.1627 21.6419L21.982 21.638C21.8667 21.638 21.7591 21.5639 21.7168 21.4547C21.6745 21.3454 21.7014 21.2167 21.786 21.1348C21.8782 21.045 21.9897 20.9514 22.1089 20.85C22.3511 20.6471 22.7547 20.3038 22.7932 20.1165C22.8316 19.9449 22.7855 19.7459 22.6971 19.6835C22.5779 19.5976 22.3588 19.6523 22.2627 19.7888C22.1704 19.9215 21.9897 19.9527 21.859 19.8551C21.7283 19.7615 21.6976 19.5781 21.7937 19.4455C22.0743 19.0437 22.6548 18.9305 23.0315 19.2036C23.3583 19.4377 23.4274 19.9059 23.3544 20.2414C23.2929 20.5301 23.0353 20.8071 22.7509 21.0606C22.9508 21.0606 23.1007 21.0567 23.2237 21.045C23.3813 21.0294 23.5236 21.1465 23.5389 21.3064Z" fill="url(#paint0_linear_195_232)"/>
</g>
<defs>
<filter id="filter0_d_195_232" x="-1.87598" y="0.335449" width="40" height="40" filterUnits="userSpaceOnUse" color-interpolation-filters="sRGB">
<feFlood flood-opacity="0" result="BackgroundImageFix"/>
<feColorMatrix in="SourceAlpha" type="matrix" values="0 0 0 0 0 0 0 0 0 0 0 0 0 0 0 0 0 0 127 0" result="hardAlpha"/>
<feOffset dy="4"/>
<feGaussianBlur stdDeviation="2"/>
<feComposite in2="hardAlpha" operator="out"/>
<feColorMatrix type="matrix" values="0 0 0 0 0 0 0 0 0 0 0 0 0 0 0 0 0 0 0.25 0"/>
<feBlend mode="normal" in2="BackgroundImageFix" result="effect1_dropShadow_195_232"/>
<feBlend mode="normal" in="SourceGraphic" in2="effect1_dropShadow_195_232" result="shape"/>
</filter>
<linearGradient id="paint0_linear_195_232" x1="18.124" y1="0.335449" x2="18.124" y2="32.3354" gradientUnits="userSpaceOnUse">
<stop stop-color="#FFBF00"/>
<stop offset="1" stop-color="#F2A50C"/>
</linearGradient>
</defs>
</svg>
