<svg xmlns="http://www.w3.org/2000/svg" viewBox="0 0 100 125" x="0px" y="0px"><path d="M94.2,42.82c-.16-1.21-.79-2.28-1.77-3.01-.98-.73-2.19-1.02-3.39-.83-2.24,.36-3.86,2.34-3.77,4.65l.9,12.45c-2.53-.42-5.2,.54-6.73,2.62l-6.54,6.65c-4.64,1.72-6.61,5.42-7.25,6.96-1.44,3.46-.26,6.73,.23,7.83l-.04,4.63h-1.37c-.83,0-1.5,.67-1.5,1.5v8.82c0,.83,.67,1.5,1.5,1.5h16.93c.83,0,1.5-.67,1.5-1.5v-8.82c0-.83-.67-1.5-1.5-1.5h-1.02l.03-.67,10.18-8.83c.18-.16,.33-.36,.42-.59l5.19-13.32c.38-.97,.49-2.02,.34-3.04l-2.35-15.51Zm-.79,17.46l-5.06,12.98-10.39,9.01c-.31,.27-.5,.66-.52,1.07l-.06,1.45h-8.55l.04-4.96c0-.25-.06-.5-.18-.72-.01-.03-1.46-2.83-.29-5.63,.5-1.2,2.06-4.13,5.79-5.39,.22-.08,.42-.2,.59-.37l6.87-6.98c.06-.06,.11-.12,.16-.19,.85-1.22,2.41-1.77,3.88-1.5l-3.57,6.6-5.18,5.49c-.27,.29-.41,.66-.41,1.03,0,.4,.16,.8,.47,1.09,.6,.57,1.55,.54,2.12-.06l5.32-5.64c.09-.09,.17-.2,.23-.31l4.48-8.26s0,0,0,0c0,0,0,0,0,0,.14-.27,.2-.56,.17-.84l-1.06-14.66c-.03-.75,.51-1.41,1.25-1.53,.4-.06,.8,.03,1.13,.27,.33,.24,.54,.6,.59,1.02l2.35,15.53c.08,.51,.02,1.03-.17,1.5Zm-13.51,27.5v5.82h-13.93v-5.82h13.93Z"/><path d="M19.73,84.78h-1.02c-.83,0-1.5,.67-1.5,1.5v8.82c0,.83,.67,1.5,1.5,1.5h16.93c.83,0,1.5-.67,1.5-1.5v-8.82c0-.83-.67-1.5-1.5-1.5h-1.37l-.04-4.63c.49-1.09,1.67-4.37,.23-7.83-.64-1.54-2.61-5.24-7.25-6.96l-6.54-6.65c-1.53-2.08-4.2-3.04-6.73-2.62l.9-12.5c.08-2.26-1.54-4.24-3.77-4.6-1.21-.19-2.41,.1-3.39,.83-.98,.73-1.61,1.8-1.77,2.98l-2.35,15.53c-.15,1.02-.04,2.08,.34,3.04l5.19,13.32c.09,.23,.23,.43,.42,.59l10.18,8.83,.03,.67ZM6.53,58.78l2.35-15.56c.05-.4,.26-.76,.59-1,.33-.24,.72-.34,1.13-.27,.74,.12,1.28,.78,1.26,1.48l-1.06,14.72c-.02,.28,.03,.57,.17,.84,0,0,0,0,0,0s0,0,0,0l4.48,8.26c.06,.11,.14,.22,.23,.31l5.32,5.64c.57,.6,1.52,.63,2.12,.06,.31-.29,.47-.69,.47-1.09,0-.37-.14-.74-.41-1.03l-5.18-5.49-3.57-6.6c1.47-.26,3.03,.28,3.88,1.5,.05,.07,.1,.13,.16,.19l6.87,6.98c.16,.17,.36,.29,.59,.37,3.72,1.27,5.29,4.19,5.79,5.39,1.17,2.81-.27,5.61-.28,5.63-.12,.22-.18,.47-.18,.72l.04,4.96h-8.55l-.06-1.45c-.02-.41-.21-.8-.52-1.07l-10.39-9.01-5.06-12.98c-.19-.48-.24-1-.17-1.5Zm27.61,34.82h-13.93v-5.82h13.93v5.82Z"/><path d="M50,66.46c.82,0,20.18-.13,22.04-11.77h0c1-6.21-2.14-8.68-4.9-10.85-2.44-1.92-4.74-3.73-5.3-8.19-1.42-11.32-10.44-11.18-11.85-11.09-1.4-.09-10.38-.22-11.84,11.08-.58,4.46-2.88,6.27-5.31,8.19-2.76,2.18-5.88,4.64-4.89,10.86,1.87,11.63,21.22,11.77,22.04,11.77Zm-15.3-20.28c2.53-2,5.69-4.49,6.43-10.16,1.01-7.77,6.13-8.51,8.04-8.51,.31,0,.54,.02,.65,.03,.12,.01,.24,.01,.36,0,.3-.04,7.52-.81,8.69,8.47,.72,5.68,3.88,8.17,6.42,10.18,2.71,2.14,4.51,3.55,3.79,8.02-1.47,9.12-18.91,9.24-19.08,9.24s-17.62-.12-19.08-9.24c-.72-4.48,1.07-5.89,3.79-8.03Z"/><path d="M27.1,21.96c-4.04,.21-6.96,5.05-6.64,11,.31,5.82,3.57,10.24,7.49,10.24,.09,0,.18,0,.28,0,4.04-.21,6.96-5.05,6.64-11-.14-2.71-.96-5.25-2.28-7.14-1.48-2.1-3.42-3.21-5.48-3.09Zm-3.65,10.84c-.24-4.49,1.81-7.74,3.8-7.84,.04,0,.08,0,.11,0,1.28,0,2.27,1.13,2.75,1.82,1,1.42,1.63,3.45,1.74,5.58,.24,4.49-1.81,7.74-3.8,7.85-1.98,.1-4.38-2.91-4.61-7.4Z"/><path d="M39.98,24.75c.09,0,.19,0,.28,0,2.06-.11,3.88-1.41,5.13-3.66,1.12-2.02,1.66-4.63,1.52-7.34-.14-2.71-.96-5.25-2.28-7.14-1.48-2.1-3.41-3.2-5.48-3.09-2.06,.11-3.88,1.41-5.13,3.66-1.12,2.02-1.66,4.63-1.52,7.34,.14,2.71,.96,5.25,2.28,7.14,1.41,2.01,3.25,3.1,5.2,3.1Zm-.69-18.25s.08,0,.11,0c1.28,0,2.27,1.13,2.76,1.82,1,1.42,1.63,3.45,1.74,5.58,.11,2.13-.3,4.22-1.14,5.73-.42,.76-1.33,2.04-2.66,2.11-1.34,.07-2.37-1.11-2.87-1.82-.99-1.42-1.63-3.45-1.74-5.58s.3-4.22,1.14-5.73c.42-.76,1.33-2.04,2.66-2.11Z"/><path d="M79.54,32.96c.32-5.95-2.6-10.79-6.64-11-2.06-.11-4.01,.99-5.48,3.09-1.33,1.89-2.14,4.43-2.28,7.14-.32,5.95,2.6,10.79,6.64,11,.09,0,.18,0,.28,0,3.92,0,7.18-4.43,7.49-10.24Zm-7.61,7.24c-1.99-.11-4.04-3.35-3.8-7.85,.11-2.13,.75-4.16,1.74-5.58,.5-.71,1.53-1.9,2.87-1.82,1.99,.11,4.04,3.35,3.8,7.84s-2.61,7.53-4.61,7.4Z"/><path d="M59.74,24.74c.09,0,.19,0,.28,0,1.96,0,3.79-1.09,5.2-3.1,1.33-1.89,2.14-4.43,2.28-7.14,.14-2.71-.39-5.32-1.52-7.34-1.25-2.25-3.07-3.55-5.13-3.66-2.06-.11-4.01,.99-5.48,3.09-1.33,1.89-2.14,4.43-2.28,7.14-.14,2.71,.39,5.32,1.52,7.34,1.25,2.25,3.07,3.55,5.13,3.66Zm.85-18.24s.08,0,.11,0c1.33,.07,2.24,1.35,2.66,2.11,.84,1.51,1.26,3.6,1.14,5.73s-.75,4.16-1.74,5.58c-.5,.71-1.55,1.89-2.87,1.82-1.33-.07-2.24-1.35-2.66-2.11-.84-1.51-1.26-3.6-1.14-5.73,.11-2.13,.75-4.16,1.74-5.58,.48-.69,1.48-1.82,2.76-1.82Z"/><text x="0" y="115" fill="#000000" font-size="5px" font-weight="bold" font-family="'Helvetica Neue', Helvetica, Arial-Unicode, Arial, Sans-serif">Created by Lars Meiertoberens</text><text x="0" y="120" fill="#000000" font-size="5px" font-weight="bold" font-family="'Helvetica Neue', Helvetica, Arial-Unicode, Arial, Sans-serif">from the Noun Project</text></svg>